<svg width="1094" height="810" xmlns="http://www.w3.org/2000/svg">

 <g>
  <title>background</title>
  <rect fill="none" id="canvas_background" height="402" width="582" y="-1" x="-1"/>
 </g>
 <g>
  <title>Layer 1</title>
  <path d="m181.17999,46.82001c0,0 173.57001,182.17999 173.57001,182.17999c0,0 260,0 260,0c0,0 -230.5,228 -230.5,228c0,0 353.75,3.25 353.75,3.25c0,0 85.25,84.25 85.25,84.25c0,0 -555.5,0 -555.5,0c0,0 -45.5,42.5 -45.5,42.5c0,0 712.5,2.25 712.5,2.25c0,0 -174.5,-179.5 -174.5,-179.5c0,0 -256.5,0.25 -256.5,0.25c0,0 227,-229.5 227,-229.5c0,0 -351.5,-2 -351.5,-2c0,0 -84,-83.75 -84,-83.75c0,0 554.75,0.25 554.75,0.25c0,0 47,-44.75 47,-44.75c0,0 -715.82001,-3.42 -715.82001,-3.42" stroke-width="0" stroke="black" fill="none" id="Logo-ruta"/>
  <path id="svg_1" d="m355,228l263,0l-233,229l354,3l84,85l-557,0l-44,41l714,3l-178,-181l-254,1l227,-229l-351,-2l-85,-84l556,1l48,-47l-718,-2l0.67999,0.711l0.679,0.711l0.68001,0.711l0.67999,0.711l0.679,0.711l0.68001,0.71101l0.67999,0.711l0.68001,0.711l0.679,0.70999l0.67999,0.711l0.68001,0.71101l0.679,0.711l0.67999,0.711l0.68001,0.711l0.679,0.711l0.67999,0.711l0.67999,0.711l0.679,0.711l0.68001,0.711l0.67999,0.711l0.679,0.711l0.68001,0.71101l0.67999,0.711l0.68001,0.711l0.679,0.70999l0.67999,0.711l0.68001,0.71101l0.679,0.711l0.67999,0.711l0.68001,0.711l0.679,0.711l0.67999,0.711l0.67999,0.711l0.679,0.711l0.68001,0.711l0.67999,0.711l0.679,0.711l0.68001,0.71101l0.67999,0.711l0.68001,0.711l0.679,0.70999l0.67999,0.711l0.68001,0.71101l0.679,0.711l0.34,0.35599l0.34,0.35501l0.34,0.356l0.34001,0.355l0.33899,0.356l0.34001,0.355l0.34,0.356l0.34,0.355l0.34,0.355l0.34,0.356l0.34001,0.355l0.33899,0.356l0.34001,0.355l0.34,0.356l0.34,0.35501l0.34,0.35599l0.34001,0.35501l0.33899,0.35599l0.34001,0.35501l0.34,0.356l0.34,0.355l0.34,0.356l0.34001,0.355l0.34,0.356l0.33899,0.355l0.34001,0.355l0.34,0.356l0.34,0.355l0.34,0.356l0.34001,0.35501l0.33899,0.35599l0.34001,0.35501l0.34,0.35599l0.34,0.35501l0.34,0.356l0.34001,0.355l0.33899,0.356l0.34001,0.355l0.34,0.356l0.34,0.355l1.991,2.08299l0.664,0.694l1.328,1.38901l1.327,1.388l2.655,2.77699l2.655,2.77701l5.31,5.55499l5.31001,5.554l15.92998,16.662l2.65503,2.77701l2.65497,2.77802l-2.633,-2.755l-2.634,-2.755l-5.26797,-5.51001l-2.63301,-2.755l-2.634,-2.755l-2.63399,-2.75499l-2.634,-2.754l-2.634,-2.755l-2.633,-2.755l-2.634,-2.75499l-2.634,-2.755l-5.26801,-5.50999l-5.267,-5.51001l5.31,5.55501l5.31001,5.554l5.31,5.554l5.31,5.554l5.31,5.554l5.31001,5.55499l5.31,5.55399l5.31,5.55402l-2.633,-2.755l-2.634,-2.755l-2.634,-2.75497l-2.634,-2.754l-5.267,-5.51004l-5.26801,-5.50998l-5.26801,-5.50999l-5.267,-5.51001l-5.26799,-5.509l-5.26701,-5.50999l5.35201,5.599l5.353,5.59801l5.35201,5.599l5.353,5.59799l2.67601,2.8l2.67599,2.79898l2.677,2.79901l2.67598,2.79999l5.35202,5.59802l5.353,5.599l-5.31,-5.55402l-5.31,-5.55399l-5.31,-5.55499l-5.31001,-5.554l-5.31,-5.554l-5.31,-5.554l-5.31,-5.554l-5.31,-5.55501l2.67599,2.8l2.67599,2.799l2.67601,2.79901l2.677,2.8l5.35199,5.59799l5.353,5.599l5.35201,5.599l5.35298,5.59802l5.35202,5.599l5.353,5.59799l-5.31,-5.55402l-5.31,-5.55399l-5.31,-5.55402l-5.31,-5.55399l-2.655,-2.77701l-2.65501,-2.778l-2.655,-2.77699l-2.65599,-2.77701l-5.31,-5.554l-5.31001,-5.554l5.395,5.64301l5.395,5.64299l5.395,5.64301l5.39499,5.64301l5.395,5.64299l5.395,5.64301l5.396,5.64301l5.39499,5.64301l-2.677,-2.79901l-2.67596,-2.79901l-2.67603,-2.79999l-2.677,-2.79898l-5.35199,-5.59802l-5.35301,-5.599l-5.35199,-5.599l-5.353,-5.59799l-5.35201,-5.599l-5.353,-5.59901l5.39499,5.64301l5.395,5.64301l5.395,5.644l5.395,5.64301l2.698,2.821l2.69699,2.82198l2.698,2.82101l2.69701,2.82199l5.39499,5.64301l5.39502,5.64301l-5.35199,-5.599l-5.353,-5.59799l-5.35202,-5.599l-5.353,-5.59901l-5.35201,-5.59799l-5.353,-5.599l-5.35201,-5.599l0.08501,0.089l2.718,2.84399l2.71899,2.84399l5.438,5.68701l5.437,5.68799l5.438,5.68701l5.437,5.68799l5.43799,5.68701l5.43701,5.68799l-5.39499,-5.64301l-16.18501,-16.92899l-2.698,-2.82201l-2.69701,-2.82199l-1.349,-1.41l-1.349,-1.41101l-1.34799,-1.411l-1.349,-1.411l-5.395,-5.64301l-5.395,-5.64299l5.437,5.68799l5.438,5.68701l2.71901,2.84399l2.71799,2.84399l2.71901,2.84401l2.71899,2.843l5.437,5.68799l5.438,5.68701l2.71902,2.84399l2.71796,2.84399l2.71902,2.84402l2.71899,2.84299l-2.698,-2.82098l-2.69699,-2.82202l-2.698,-2.82098l-2.69702,-2.82202l-5.39499,-5.64297l-5.395,-5.64302l-2.698,-2.82201l-2.69699,-2.821l-2.69801,-2.82199l-2.69699,-2.821l-5.395,-5.64301l-5.395,-5.64301l5.48001,5.73201l5.48,5.73199l5.48,5.73199l5.48001,5.731l2.73999,2.866l2.74001,2.866l2.74001,2.86603l2.73999,2.86597l5.47998,5.73203l5.48001,5.73199l-5.43799,-5.68701l-5.43698,-5.68799l-5.43802,-5.68701l-5.437,-5.68799l-5.438,-5.68701l-5.437,-5.68799l-5.438,-5.68701l-5.437,-5.68799l2.73999,2.866l2.74001,2.866l2.74001,2.866l2.73999,2.866l5.48,5.73201l5.48001,5.73199l5.47899,5.73201l5.48,5.73199l2.74002,2.866l2.73999,2.866l2.73999,2.866l2.74002,2.866l-2.71802,-2.84399l-2.71899,-2.84399l-2.71899,-2.84399l-2.71902,-2.84302l-2.71799,-2.84399l-2.71899,-2.84399l-2.71899,-2.84399l-2.71901,-2.84302l-2.718,-2.84399l-2.71899,-2.84399l-2.71899,-2.84401l-2.71901,-2.843l-2.718,-2.84399l-2.71899,-2.84399l-2.71899,-2.84401l-2.71901,-2.843l2.76201,2.888l2.761,2.888l2.761,2.888l2.76099,2.888l2.76201,2.88901l2.761,2.888l2.761,2.888l2.761,2.888l2.76199,2.888l2.761,2.88901l2.761,2.888l2.76102,2.88797l2.76099,2.888l2.76199,2.888l2.76099,2.88803l2.76102,2.88898l-2.73999,-2.866l-2.73999,-2.866l-2.74002,-2.866l-2.74002,-2.866l-2.73999,-2.866l-2.73999,-2.866l-2.74001,-2.86603l-2.73999,-2.86598l-2.74001,-2.866l-2.74001,-2.866l-2.73999,-2.866l-2.74001,-2.86601l-2.74001,-2.866l-2.73999,-2.866l-2.74001,-2.866l-2.73999,-2.866l2.76199,2.888l2.761,2.88899l2.761,2.888l2.761,2.888l2.761,2.888l2.76199,2.888l2.761,2.888l2.761,2.88901l2.761,2.88799l2.76199,2.888l2.761,2.888l2.76099,2.888l2.76102,2.88901l2.76199,2.888l2.76102,2.888l2.76099,2.888l-2.73999,-2.866l-2.73999,-2.866l-2.74002,-2.866l-2.73999,-2.86603l-2.73999,-2.86597l-2.74002,-2.866l-2.73999,-2.866l-2.74001,-2.86603l-2.74001,-2.866l-2.73999,-2.866l-2.74001,-2.866l-2.74001,-2.866l-2.73999,-2.86501l-2.74001,-2.866l-2.74001,-2.866l-2.73999,-2.866l2.78299,2.90999l2.78201,2.91l2.78299,2.911l2.782,2.91l2.78201,2.911l2.78299,2.91l2.782,2.91l2.783,2.91101l1.39101,1.45499l1.39099,1.45502l1.392,1.45499l1.39102,1.45599l2.78198,2.91l2.78302,2.91l2.78198,2.91098l2.78299,2.91l2.78201,2.91101l2.78299,2.91l-2.76199,-2.888l-2.76099,-2.888l-2.76102,-2.88898l-2.76099,-2.88803l-1.38101,-1.444l-1.38,-1.444l-1.38098,-1.44397l-1.38101,-1.44403l-2.761,-2.888l-2.761,-2.888l-2.761,-2.88899l-2.76199,-2.888l-2.761,-2.888l-2.761,-2.888l-2.761,-2.888l-2.76199,-2.88899l-2.761,-2.888l-2.761,-2.888l2.782,2.91l2.783,2.911l2.782,2.91l2.783,2.911l2.782,2.91l2.783,2.90999l2.782,2.91101l2.78299,2.90999l2.78201,2.91101l2.78297,2.91l2.78201,2.90997l2.78299,2.91104l2.78201,2.90997l2.78299,2.91101l2.78201,2.90997l2.78299,2.91101l-2.76199,-2.88901l-2.76099,-2.88797l-2.76102,-2.888l-2.76099,-2.88803l-2.76202,-2.88797l-2.76099,-2.88901l-2.761,-2.888l-2.76099,-2.888l-2.76201,-2.888l-2.761,-2.888l-2.761,-2.88899l-2.761,-2.888l-2.76099,-2.888l-2.76201,-2.888l-2.761,-2.888l-2.761,-2.888l2.804,2.93199l2.80301,2.933l2.804,2.93201l2.804,2.933l2.80299,2.933l2.804,2.93201l2.804,2.933l2.804,2.93301l2.80299,2.93198l2.80399,2.93298l2.80402,2.93201l2.80301,2.93301l2.80399,2.93298l2.80402,2.93204l2.80298,2.93298l2.80402,2.93201l-2.78201,-2.91l-2.78299,-2.91l-2.78201,-2.91098l-2.78299,-2.91l-2.78198,-2.91101l-2.78302,-2.91l-2.782,-2.91l-2.783,-2.91101l-2.782,-2.90999l-2.78299,-2.911l-2.78201,-2.91l-2.782,-2.91l-2.78299,-2.911l-2.78201,-2.91l-2.78299,-2.911l-2.782,-2.91l2.80299,2.933l2.804,2.93201l2.804,2.933l2.804,2.933l2.80299,2.93199l2.804,2.933l2.804,2.93201l2.80299,2.933l2.804,2.93298l2.80399,2.93204l2.80301,2.93298l2.80402,2.93201l2.80402,2.93298l2.80399,2.93301l2.80301,2.93198l2.80399,2.93301l-2.78201,-2.91l-2.78299,-2.91101l-2.78201,-2.90997l-2.78299,-2.91101l-2.78201,-2.91l-2.78299,-2.91l-2.782,-2.91101l-2.78299,-2.90997l-2.78201,-2.91101l-2.78299,-2.91l-2.782,-2.90999l-2.783,-2.91101l-2.782,-2.90999l-2.783,-2.91101l-2.782,-2.90999l-2.782,-2.91l2.82399,2.95399l2.82501,2.955l2.825,2.955l2.825,2.955l2.825,2.955l2.825,2.955l2.82501,2.95399l2.825,2.95499l2.825,2.95502l2.82501,2.95499l2.82498,2.95499l2.82501,2.95502l2.82498,2.95401l2.82501,2.95499l1.41199,1.47803l1.41302,1.47696l1.41199,1.47702l1.41299,1.478l-2.80399,-2.93301l-2.80402,-2.93198l-2.80301,-2.93298l-2.80399,-2.93301l-2.80402,-2.93201l-2.80399,-2.93298l-2.80299,-2.93201l-2.804,-2.93301l-2.804,-2.933l-2.80299,-2.93199l-1.40201,-1.46701l-1.40199,-1.466l-1.40201,-1.46599l-1.40199,-1.46701l-2.804,-2.93199l-2.80301,-2.933l-2.804,-2.93201l-2.804,-2.933l2.82501,2.955l2.825,2.955l2.825,2.95399l2.825,2.955l2.825,2.955l2.82501,2.955l2.825,2.955l2.825,2.955l2.825,2.95398l2.82498,2.95502l2.82504,2.95502l2.82498,2.95499l2.82501,2.95499l2.82498,2.95502l2.82501,2.95401l2.82498,2.95499l-2.80399,-2.93201l-2.80402,-2.93298l-2.80399,-2.93301l-2.80301,-2.93201l-2.80399,-2.93301l-2.80399,-2.93198l-2.80302,-2.93301l-2.804,-2.93298l-2.804,-2.93201l-2.804,-2.933l-2.80299,-2.93201l-2.804,-2.933l-2.804,-2.933l-2.80299,-2.93199l-2.804,-2.93301l-2.804,-2.933l2.84599,2.97701l2.847,2.978l2.84601,2.97701l2.84599,2.97701l2.84601,2.97699l2.84599,2.97701l2.847,2.97701l2.84599,2.97699l2.84601,2.97702l2.84601,2.97699l2.84598,2.97699l2.84601,2.97702l2.84702,2.97699l2.84598,2.97699l2.84601,2.97702l2.84601,2.97699l-2.82501,-2.95502l-2.82498,-2.95401l-2.82501,-2.95496l-2.82498,-2.95502l-2.82501,-2.95499l-2.82401,-2.95502l-2.82498,-2.95499l-2.82501,-2.95401l-2.82501,-2.955l-2.825,-2.955l-2.825,-2.955l-2.825,-2.955l-2.825,-2.955l-2.82501,-2.95399l-2.825,-2.955l-2.825,-2.955l2.84599,2.97701l2.84601,2.97699l2.847,2.97701l2.84599,2.97701l2.84601,2.97701l2.84599,2.97699l2.84601,2.97699l2.847,2.97702l2.84599,2.97699l2.84601,2.97702l2.84601,2.97699l2.84598,2.978l2.84702,2.97699l2.84598,2.97699l2.84601,2.97702l2.84601,2.97699l-2.82501,-2.95499l-2.82498,-2.95499l-2.82501,-2.95502l-2.82501,-2.95502l-2.82498,-2.95398l-2.82498,-2.95499l-2.82504,-2.95502l-2.82498,-2.95499l-2.82399,-2.95502l-2.82501,-2.955l-2.825,-2.95399l-2.825,-2.955l-2.825,-2.955l-2.825,-2.955l-2.82501,-2.955l-2.825,-2.955l2.867,3l2.868,2.99901l2.867,2.99899l2.868,2.99901l2.867,3l2.867,2.99899l2.868,2.99901l2.86699,3l2.86801,2.99899l2.867,2.99899l2.86798,2.99899l2.867,3l2.867,2.99902l2.86801,2.99899l2.867,2.99902l2.86798,3l-2.84601,-2.97702l-2.84698,-2.97699l-2.84601,-2.97699l-2.84601,-2.97803l-1.423,-1.48801l-1.42297,-1.48898l-1.423,-1.48801l-1.423,-1.48901l-2.84702,-2.97699l-2.84598,-2.97699l-2.84601,-2.97699l-2.84599,-2.97702l-2.84601,-2.97699l-2.847,-2.97701l-2.84599,-2.97701l-2.84601,-2.97699l-2.84599,-2.97701l-2.84601,-2.97701l1.43301,1.49901l1.43399,1.5l1.43401,1.5l1.43399,1.49899l2.867,3l2.867,2.99901l2.868,2.99899l2.867,2.99901l2.868,3.00002l2.867,2.99899l2.868,2.99899l2.867,3l2.867,2.99899l2.86801,2.99899l2.86697,2.99902l2.86801,3l2.867,2.99899l2.86798,2.99899l-2.84698,-2.97702l-2.84601,-2.97699l-2.84601,-2.97699l-2.84601,-2.97702l-2.84598,-2.97699l-2.84702,-2.97699l-2.84601,-2.97699l-2.84598,-2.97702l-2.84601,-2.97699l-2.84599,-2.97701l-2.84601,-2.97701l-2.847,-2.97699l-2.84599,-2.978l-2.84599,-2.97701l-2.84601,-2.97701l-2.84599,-2.97699l2.888,3.02199l2.88899,3.02101l2.88901,3.02199l2.888,3.02101l2.88899,3.02199l2.88901,3.02101l2.888,3.022l2.88899,3.021l2.88901,3.022l2.888,3.021l2.88898,3.022l2.88904,3.021l2.88797,3.022l2.88901,3.021l2.88901,3.022l2.888,3.021l-2.867,-2.99902l-2.86801,-2.99896l-2.867,-3l-2.867,-2.99899l-2.86798,-2.99902l-2.867,-3l-2.86801,-2.99899l-2.86699,-2.99902l-2.868,-2.99896l-2.867,-3.00002l-2.86699,-2.99901l-2.86801,-2.99899l-2.86699,-2.99901l-2.86801,-3l-2.86699,-2.99899l-2.86801,-2.99901l2.88901,3.02101l2.88899,3.02199l2.888,3.02101l2.88901,3.02199l2.88899,3.02101l2.888,3.02199l2.88901,3.021l2.88899,3.02203l2.888,3.021l2.88901,3.02197l2.88901,3.021l2.88797,3.02203l2.88901,3.021l2.88901,3.022l2.888,3.021l2.88901,3.022l-2.867,-3l-2.86801,-2.99902l-2.86697,-2.99899l-2.86801,-3l-2.867,-2.99899l-2.867,-2.99899l-2.86798,-2.99902l-2.86702,-3l-2.868,-2.99899l-2.867,-2.99901l-2.868,-2.99899l-2.86699,-3l-2.867,-2.99899l-2.868,-2.99901l-2.867,-2.99899l-2.868,-3l2.90999,3.04399l2.91,3.04401l2.91,3.043l2.91,3.04399l2.90999,3.04401l2.91,3.043l2.91,3.04401l2.91,3.04398l2.909,3.04404l2.91,3.04297l2.90997,3.04401l2.91003,3.04401l2.90997,3.043l2.91,3.04401l2.91,3.04401l2.91,3.04297l-2.88901,-3.021l-2.888,-3.021l-2.88898,-3.02197l-2.88901,-3.021l-2.88901,-3.022l-2.888,-3.02103l-2.88898,-3.02197l-2.88901,-3.021l-2.88802,-3.02203l-2.88899,-3.02098l-1.444,-1.511l-1.44501,-1.511l-1.444,-1.511l-1.444,-1.50999l-2.88899,-3.022l-2.88901,-3.02101l-2.888,-3.02199l-2.88899,-3.02101l2.91,3.043l2.90999,3.04401l2.91,3.04401l2.91,3.04399l2.91,3.043l2.90999,3.04401l1.455,1.52202l1.45401,1.52197l1.455,1.521l1.45499,1.522l2.91,3.04401l2.91,3.04401l2.91,3.043l2.91,3.04401l2.91,3.04401l2.90997,3.04398l2.91,3.04303l2.91,3.04398l-2.88901,-3.022l-2.88898,-3.021l-2.888,-3.022l-2.88901,-3.021l-2.88901,-3.021l-2.88797,-3.022l-2.88904,-3.021l-2.88898,-3.022l-2.888,-3.021l-2.88901,-3.022l-2.88899,-3.021l-2.888,-3.022l-2.88901,-3.021l-2.88899,-3.022l-2.888,-3.021l-2.88901,-3.022l2.931,3.06599l2.931,3.06599l2.931,3.06601l2.93201,3.06599l2.931,3.06601l2.931,3.06599l2.931,3.06598l2.931,3.06604l2.931,3.06497l2.931,3.06601l2.93198,3.06601l2.93103,3.06601l2.931,3.06598l2.931,3.06598l2.931,3.06604l2.931,3.06598l-2.91,-3.04401l-2.909,-3.04401l-2.91,-3.04297l-2.91,-3.04404l-2.91,-3.04398l-2.91,-3.043l-2.90997,-3.04401l-2.91,-3.04398l-2.91002,-3.04303l-2.91,-3.04401l-2.90999,-3.04399l-2.91,-3.04399l-2.909,-3.043l-2.91,-3.04401l-2.91,-3.04399l-2.91,-3.043l2.931,3.06599l2.931,3.065l2.931,3.06599l2.931,3.06599l2.93201,3.06601l2.931,3.06598l2.931,3.06604l2.931,3.06598l2.931,3.06598l2.931,3.06604l2.931,3.06598l2.93201,3.06601l2.931,3.06601l2.931,3.06598l2.931,3.065l2.931,3.06598l-2.91,-3.04297l-2.91,-3.04401l-2.91,-3.04401l-2.909,-3.043l-2.91,-3.04398l-2.91,-3.04404l-2.90997,-3.04398l-2.91003,-3.04303l-2.90999,-3.04398l-2.90999,-3.04401l-2.91,-3.043l-2.91,-3.04399l-2.91,-3.04401l-2.90999,-3.043l-2.90901,-3.04401l-2.90999,-3.04399l2.952,3.088l2.952,3.088l2.953,3.089l2.952,3.088l2.953,3.088l2.952,3.088l2.95201,3.08801l2.95297,3.08801l2.95203,3.08798l2.95297,3.08798l2.95203,3.08902l2.952,3.08798l2.953,3.08801l2.952,3.08801l2.953,3.08798l2.952,3.08801l-2.931,-3.06601l-2.931,-3.06598l-2.93201,-3.065l-2.931,-3.06601l-2.93097,-3.06601l-2.931,-3.06601l-2.93103,-3.06601l-2.931,-3.06598l-2.931,-3.06598l-2.93199,-3.06604l-2.931,-3.06598l-2.931,-3.06599l-2.931,-3.06601l-2.931,-3.06599l-2.931,-3.065l-2.93201,-3.06599l1.47701,1.54399l1.476,1.54401l1.476,1.54399l1.476,1.54401l2.953,3.088l2.952,3.088l2.95201,3.088l2.953,3.08801l2.952,3.08899l2.953,3.08801l2.952,3.08798l2.952,3.08801l2.953,3.08798l2.952,3.08801l1.47601,1.54401l1.47699,1.54401l1.47601,1.54398l1.47598,1.54404l2.952,3.08896l2.953,3.08801l-2.931,-3.06598l-2.93201,-3.06601l-2.931,-3.06601l-2.931,-3.06598l-2.93097,-3.06601l-2.931,-3.06601l-2.931,-3.06598l-2.93103,-3.06604l-2.93199,-3.06598l-2.931,-3.065l-2.931,-3.06599l-2.931,-3.06601l-2.931,-3.06599l-2.931,-3.06599l-2.93199,-3.06601l-2.931,-3.06599l2.974,3.11l2.974,3.11099l2.97299,3.11l2.974,3.11l2.97301,3.11101l2.974,3.10999l2.974,3.11102l2.97301,3.10999l2.974,3.10999l2.974,3.11102l2.97299,3.10999l2.974,3.11002l2.974,3.11099l2.97299,3.10999l2.974,3.11002l2.97302,3.11099l-2.952,-3.08801l-2.95203,-3.08899l-2.953,-3.08801l-2.952,-3.08798l-2.953,-3.08801l-2.95197,-3.08798l-2.95203,-3.08801l-2.95297,-3.08798l-2.95203,-3.08902l-2.952,-3.08798l-2.953,-3.088l-2.952,-3.08801l-2.953,-3.088l-2.952,-3.088l-2.952,-3.088l16.23799,16.98398l-19.19099,-20.07198l20.67799,21.62798l-17.70399,-18.51797l18.452,19.30099l-15.479,-16.19099l16.966,17.74599l18.71799,19.578l-23.57698,-24.66l2.05,2.14401l6,6.276l3.97198,4.155l3.88699,4.065l26.04102,27.23798l7.668,8.02002l17.353,18.151l-18.07599,-18.90601l-37.021,-38.724l20.72998,21.68402l-19.116,-19.99603l37.74402,39.48001l-40.42001,-42.27899l14.16699,14.819l-14.125,-14.77399l41.95001,43.87799l-39.18903,-40.98999l4.65201,4.86496l-1.88998,-1.97696l37.99799,39.74597l-35.237,-36.85797l36.80902,38.50198l-34.048,-35.61398l35.62,37.25797l-32.85901,-34.36899l34.431,36.013l-31.66998,-33.125l30.13998,31.52499l-27.37799,-28.63699l25.849,27.03799l-1.52899,-1.60001l-1.52902,-1.599l-1.53,-1.59998l-1.52899,-1.60001l-1.52899,-1.599l-1.53,-1.60001l-6.62701,-6.93201l-6.62698,-6.931l-6.62701,-6.93198l-6.62601,-6.93103l-6.62698,-6.93201l-6.62698,-6.93198l-6.62701,-6.931l-6.62701,-6.93201l6.71201,7.02002l6.71201,7.02097l6.711,7.02002l6.71201,7.021l6.71201,7.01999l6.71198,7.02103l6.71201,7.01999l6.71201,7.021l1.61401,1.68799l1.61499,1.68903l1.61398,1.68799l1.61401,1.689l1.61401,1.68799l1.61499,1.68903l1.61398,1.68799l1.61401,1.689l-1.57199,-1.64398l-1.57101,-1.64401l-1.57199,-1.64401l-1.57199,-1.64398l-1.57202,-1.64401l-1.57199,-1.64398l-1.57101,-1.64401l-1.57199,-1.64499l-6.66998,-6.97601l-6.66901,-6.97601l-6.66901,-6.97598l-6.67001,-6.97601l-6.66898,-6.97598l-6.67001,-6.97601l-6.66899,-6.97598l-6.67001,-6.97601l6.755,7.065l6.75398,7.065l6.755,7.065l6.75403,7.065l6.754,7.06497l6.75497,7.065l6.75403,7.06403l6.75497,7.065l1.65601,1.733l1.65701,1.733l1.65698,1.733l1.65601,1.73297l1.65701,1.733l1.65698,1.733l1.65701,1.733l1.65601,1.733l-1.61401,-1.689l-1.61398,-1.68799l-1.61401,-1.689l-1.61499,-1.68802l-1.61401,-1.689l-1.61398,-1.68799l-1.61401,-1.68903l-1.61499,-1.68799l-6.71201,-7.021l-6.711,-7.02002l-6.71201,-7.021l-6.71201,-7.01999l-6.71201,-7.021l-6.71201,-7.01999l-6.71198,-7.021l-6.71201,-7.02002l6.797,7.10901l6.797,7.10999l6.797,7.10901l6.797,7.10901l6.79602,7.10999l6.797,7.10901l6.797,7.10898l6.797,7.11002l1.69901,1.77701l1.69998,1.77798l1.69901,1.77701l1.69901,1.77701l1.69901,1.77798l1.69901,1.77701l1.69998,1.77701l1.69901,1.77798l-1.65698,-1.733l-1.65701,-1.733l-1.65601,-1.73297l-1.65698,-1.733l-1.65701,-1.733l-1.65701,-1.733l-1.65598,-1.733l-1.65701,-1.733l-6.754,-7.065l-6.755,-7.065l-6.754,-7.065l-6.755,-7.064l-6.754,-7.065l-6.754,-7.065l-6.75499,-7.065l-6.75401,-7.065l6.839,7.15402l6.839,7.15298l6.84,7.15399l6.83899,7.15399l6.84,7.15402l6.83902,7.15399l6.83899,7.15302l6.84,7.15399l1.741,1.82199l1.742,1.82199l1.742,1.82202l1.741,1.82098l1.742,1.82202l1.742,1.82199l1.741,1.82199l1.742,1.82101l-1.69901,-1.77701l-1.69901,-1.77701l-1.69901,-1.77798l-1.69998,-1.77701l-1.69901,-1.77701l-1.69901,-1.77798l-1.69901,-1.77701l-1.69998,-1.77701l-6.79602,-7.10999l-6.797,-7.10901l-6.797,-7.10898l-6.797,-7.11002l-6.797,-7.10901l-6.797,-7.10999l-6.797,-7.10901l-6.79701,-7.10901l6.882,7.198l6.88199,7.198l6.88202,7.198l6.88199,7.19904l6.88202,7.19797l6.88098,7.19803l6.88202,7.198l6.88199,7.19897l1.784,1.866l1.784,1.866l1.785,1.86603l1.784,1.866l1.784,1.86697l1.784,1.86603l1.784,1.866l1.785,1.866l-1.742,-1.82101l-1.74197,-1.82199l-1.742,-1.82199l-1.741,-1.82202l-1.742,-1.82199l-1.742,-1.82098l-1.741,-1.82202l-1.742,-1.82199l-6.83899,-7.15402l-6.84,-7.15399l-6.83902,-7.15298l-6.83899,-7.15402l-6.84,-7.15396l-6.83899,-7.15402l-6.84003,-7.15399l-6.83899,-7.153l6.92398,7.24199l6.92502,7.24301l6.92401,7.24298l6.92398,7.242l6.92502,7.24301l6.92398,7.24298l6.92401,7.242l6.92499,7.24301l1.82602,1.91101l1.827,1.91l1.827,1.91098l1.82599,1.91101l1.827,1.91l1.82703,1.91098l1.82599,1.91101l1.827,1.91l-1.784,-1.866l-1.784,-1.866l-1.785,-1.866l-1.784,-1.867l-1.784,-1.866l-1.784,-1.866l-1.78403,-1.86603l-1.784,-1.866l-6.88199,-7.19897l-6.88199,-7.198l-6.88202,-7.198l-6.88199,-7.198l-6.88199,-7.19904l-6.88202,-7.19797l-6.88101,-7.198l-6.88199,-7.19803l6.96701,7.28702l6.96597,7.28699l6.96701,7.28702l6.96701,7.28699l6.96701,7.28699l6.96698,7.28702l6.966,7.28699l6.96701,7.28702l1.86899,1.95599l1.86902,1.95499l1.87,1.95502l1.86899,1.95499l1.86902,1.95502l1.86899,1.95499l1.86899,1.95502l1.86902,1.95499l-1.82602,-1.91101l-1.827,-1.91l-1.827,-1.91098l-1.82599,-1.91101l-1.827,-1.91l-1.82703,-1.91098l-1.82599,-1.91l-1.827,-1.91101l-6.92401,-7.24301l-6.92499,-7.242l-6.92401,-7.24298l-6.92398,-7.24298l-6.92502,-7.242l-6.92401,-7.24301l-6.92398,-7.24301l-6.924,-7.24197l7.00902,7.33096l7.00897,7.332l7.009,7.33102l7.01001,7.332l7.009,7.33099l7.009,7.332l7.009,7.33099l7.00998,7.332l1.91101,1.99899l1.91199,2l1.91202,1.99902l1.91098,2l1.91202,1.99899l1.91098,2l1.91202,1.99899l1.91199,2l-1.86899,-1.95499l-1.87,-1.95502l-1.86902,-1.95499l-1.86899,-1.95502l-1.86899,-1.95499l-1.86902,-1.95599l-1.86899,-1.95502l-1.86902,-1.95499l-6.96698,-7.28702l-6.96701,-7.28699l-6.96701,-7.28699l-6.96698,-7.28702l-6.966,-7.28702l-6.96701,-7.28696l-6.96701,-7.28702l-6.96698,-7.28799l7.052,7.37601l7.052,7.37598l7.05099,7.37601l7.052,7.37598l7.052,7.37601l7.052,7.37604l7.05099,7.37598l7.052,7.37601l1.95398,2.04401l1.95401,2.04398l1.95502,2.04401l1.95398,2.04401l1.95401,2.04401l1.95401,2.04401l1.95398,2.04398l1.95401,2.04401l-1.91199,-2l-1.91101,-1.99899l-1.91202,-2l-1.91098,-1.99899l-1.91202,-2l-1.91199,-1.99902l-1.91101,-2l-1.91199,-1.99899l-7.009,-7.332l-7.009,-7.33099l-7.01001,-7.332l-7.00897,-7.33099l-7.009,-7.332l-7.01001,-7.332l-7.009,-7.33102l-7.009,-7.33197l7.09402,7.42099l7.09396,7.42001l7.095,7.42099l7.09402,7.42001l7.09399,7.41998l7.09399,7.42099l7.095,7.42001l7.09399,7.42099l1.996,2.08801l1.99701,2.08798l1.99698,2.08902l1.996,2.08798l1.99701,2.08902l1.996,2.08798l1.99701,2.08801l1.996,2.08899l-1.95401,-2.04401l-1.95401,-2.04398l-1.95398,-2.04401l-1.95401,-2.04401l-1.95401,-2.04401l-1.95398,-2.04401l-1.95401,-2.04398l-1.95401,-2.04401l-7.052,-7.37601l-7.052,-7.37598l-7.052,-7.37601l-7.05099,-7.37601l-7.052,-7.37601l-7.052,-7.37601l-7.052,-7.37601l-7.05098,-7.37598l7.136,7.465l7.13699,7.465l7.13699,7.465l7.13602,7.465l7.13699,7.46503l7.13699,7.46399l7.13699,7.465l7.13602,7.465l2.039,2.133l2.039,2.133l2.03998,2.133l2.039,2.13202l2.039,2.133l2.039,2.133l2.039,2.133l2.039,2.133l-1.99701,-2.08899l-1.99597,-2.08801l-1.99701,-2.08899l-1.99701,-2.08801l-1.996,-2.08798l-1.99698,-2.08899l-1.996,-2.08801l-1.99701,-2.08801l-7.09399,-7.42099l-7.09402,-7.41998l-7.09497,-7.42102l-7.09402,-7.41998l-7.09399,-7.42099l-7.09399,-7.42004l-7.095,-7.41998l-7.09399,-7.42099l1.74197,1.82199l1.742,1.82202l1.741,1.82199l1.742,1.82098l1.742,1.82199l1.74103,1.82202l1.742,1.82199l1.74197,1.82101l7.51901,7.86499l7.51898,7.86502l7.51901,7.86499l7.51898,7.86398l7.51901,7.86499l7.51901,7.86502l7.51898,7.86499l7.51901,7.86401l-7.43399,-7.77502l-7.43402,-7.776l-7.43399,-7.77597l-7.43399,-7.776l-7.43402,-7.77603l-7.43399,-7.776l-7.43399,-7.776l-7.43402,-7.77597l-1.74197,-1.82101l-1.74203,-1.82199l-1.74197,-1.82202l-1.741,-1.82199l-1.742,-1.82098l-1.742,-1.82202l-1.741,-1.82199l-1.742,-1.82199l1.827,1.91101l1.82602,1.90997l1.82697,1.91101l1.82703,1.91098l1.82599,1.91l1.82703,1.91101l1.82697,1.91101l1.82602,1.90997l7.51898,7.86502l7.51901,7.86502l7.51901,7.86496l7.51898,7.86401l7.51901,7.86502l7.51898,7.86499l7.52002,7.86499l7.51898,7.86401l-7.435,-7.776l-7.43399,-7.77499l-7.43399,-7.776l-7.43402,-7.776l-7.43399,-7.77603l-7.43399,-7.776l-7.43402,-7.77597l-7.43399,-7.776l-1.827,-1.91l-1.82602,-1.91098l-1.827,-1.91104l-1.82697,-1.90997l-1.82602,-1.91101l-1.827,-1.91098l-1.82703,-1.91l-1.82597,-1.91101l1.911,2l1.91199,1.99899l1.91101,2l1.91199,1.99899l1.91202,2l1.91098,1.99902l1.91202,2l1.91199,1.99899l7.51901,7.86499l7.51898,7.86502l7.51901,7.86398l7.51901,7.86499l7.51898,7.86502l7.51901,7.86499l7.51898,7.86401l7.51901,7.86499l-7.43399,-7.776l-7.43402,-7.776l-7.43399,-7.77499l-7.43399,-7.776l-7.43402,-7.776l-7.435,-7.776l-7.43399,-7.776l-7.43399,-7.776l-1.91101,-1.99899l-1.91199,-2l-1.91202,-1.99902l-1.91098,-2l-1.91202,-1.99899l-1.91101,-2l-1.91199,-1.99899l-1.91199,-2l1.99701,2.08798l1.99597,2.08902l1.99701,2.08801l1.99701,2.08899l1.99597,2.08801l1.99701,2.08798l1.996,2.08902l1.99701,2.08798l7.51901,7.86499l7.51898,7.86502l7.51901,7.86398l7.51898,7.86499l7.51901,7.86502l7.51901,7.86499l7.51898,7.86401l7.51901,7.86499l-7.43402,-7.776l-7.43399,-7.776l-7.43399,-7.776l-7.43399,-7.77499l-7.43402,-7.776l-7.43399,-7.776l-7.43399,-7.776l-7.43402,-7.776l-1.99698,-2.08801l-1.99701,-2.08899l-1.996,-2.08801l-1.99701,-2.08798l-1.996,-2.08902l-1.99701,-2.08798l-1.99597,-2.08902l-1.99701,-2.08798l2.082,2.177l2.08099,2.177l2.082,2.17798l2.08099,2.177l2.082,2.177l2.08102,2.177l2.082,2.17801l2.08099,2.177l7.51898,7.86502l7.51901,7.86398l7.51901,7.86499l7.51999,7.86502l7.51898,7.86499l7.51901,7.86398l7.51901,7.86502l7.51898,7.86499l-7.43399,-7.776l-7.43399,-7.776l-7.435,-7.776l-7.43402,-7.776l-7.43399,-7.77499l-7.43399,-7.776l-7.43402,-7.776l-7.43399,-7.776l-2.082,-2.177l-2.08099,-2.17801l-2.082,-2.177l-2.08102,-2.177l-2.08197,-2.177l-2.08099,-2.17798l-2.08203,-2.177l-2.08099,-2.177l2.16602,2.26599l2.16699,2.26599l2.16602,2.26602l2.16699,2.26599l2.16599,2.26703l2.16699,2.26596l2.16602,2.26602l2.16699,2.26599l7.51901,7.86502l7.51898,7.86398l7.51901,7.86502l7.51901,7.86499l7.51898,7.86499l7.51901,7.86401l7.51898,7.86499l7.51901,7.86499l-7.43399,-7.776l-7.43402,-7.776l-7.43399,-7.776l-7.43399,-7.776l-7.43402,-7.776l-7.43399,-7.77499l-7.435,-7.776l-7.43399,-7.776l-2.16602,-2.26599l-2.16699,-2.26599l-2.16602,-2.267l-2.16699,-2.26602l-2.16599,-2.26599l-2.16699,-2.26602l-2.16602,-2.26599l-2.16699,-2.26599l2.25198,2.35498l2.25101,2.35504l2.25201,2.35498l2.25098,2.35501l2.25201,2.35498l2.25101,2.35501l2.25198,2.35498l2.25101,2.35501l7.51901,7.86401l7.51898,7.86499l7.51901,7.86499l7.51898,7.86502l7.51901,7.86398l7.51898,7.86502l7.51901,7.86499l7.51901,7.86499l-7.43402,-7.776l-7.43399,-7.776l-7.43399,-7.776l-7.43402,-7.776l-7.43399,-7.776l-7.43399,-7.776l-7.43402,-7.77499l-7.43399,-7.77597l-2.25198,-2.35501l-2.25101,-2.35501l-2.25201,-2.35498l-2.25098,-2.35501l-2.25201,-2.35501l-2.25098,-2.35501l-2.25101,-2.35498l-2.25201,-2.35501l2.336,2.444l2.33701,2.444l2.336,2.44302l2.33701,2.444l2.336,2.444l2.33701,2.444l2.336,2.444l2.336,2.444l7.51999,7.86398l7.51901,7.86499l7.51898,7.86502l7.51901,7.86499l7.51898,7.86398l7.51901,7.86502l7.51901,7.86499l7.51898,7.86499l-7.43399,-7.776l-7.43399,-7.776l-7.43402,-7.776l-7.435,-7.776l-7.43399,-7.776l-7.43399,-7.776l-7.43402,-7.776l-7.43399,-7.77496l-2.336,-2.44403l-2.33701,-2.444l-2.336,-2.444l-2.33701,-2.444l-2.336,-2.444l-2.336,-2.44397l-2.33701,-2.44302l-2.336,-2.444l2.42102,2.53201l2.422,2.53299l2.42099,2.53299l2.42099,2.53302l2.422,2.53198l2.42102,2.53299l2.42099,2.53302l2.422,2.53198l7.51901,7.86502l7.51898,7.86499l7.51901,7.86502l7.51898,7.86398l7.51901,7.86499l7.51901,7.86502l7.51898,7.86499l7.51901,7.86401l-7.43399,-7.77502l-7.43402,-7.776l-7.43399,-7.77597l-7.43399,-7.776l-7.43402,-7.776l-7.43399,-7.77603l-7.43399,-7.77597l-7.43402,-7.77603l-2.422,-2.53198l-2.42099,-2.53299l-2.422,-2.53299l-2.42099,-2.53201l-2.42102,-2.53302l-2.422,-2.53299l-2.42099,-2.53299l-2.42203,-2.53201l2.50702,2.621l2.50598,2.62201l2.50601,2.621l2.50702,2.62201l2.50598,2.62198l2.50702,2.621l2.50598,2.62201l2.50601,2.62097l7.51898,7.86502l7.51901,7.86499l7.51901,7.86502l7.51898,7.86398l7.51901,7.86502l7.51898,7.86499l7.52002,7.86499l7.51898,7.86401l-7.435,-7.776l-7.43399,-7.77499l-7.43399,-7.776l-7.43402,-7.776l-7.43399,-7.776l-7.43399,-7.776l-7.43402,-7.776l-7.43399,-7.776l-2.50601,-2.621l-2.50699,-2.62201l-2.50601,-2.621l-2.50598,-2.62198l-2.50702,-2.62201l-2.50598,-2.621l-2.50702,-2.62201l-2.50598,-2.621l2.591,2.70999l2.59201,2.711l2.59097,2.71002l2.591,2.70999l2.59201,2.711l2.591,2.71002l2.591,2.711l2.59198,2.70999l7.51901,7.86499l7.51898,7.86502l7.51901,7.86398l7.51901,7.86499l7.51898,7.86502l7.51901,7.86499l7.51898,7.86401l7.51901,7.86499l-7.43399,-7.776l-7.43402,-7.776l-7.43399,-7.77499l-7.43399,-7.776l-7.43402,-7.776l-7.435,-7.776l-7.43399,-7.776l-7.43399,-7.776l-2.591,-2.70999l-2.591,-2.711l-2.59201,-2.71002l-2.591,-2.711l-2.59097,-2.70999l-2.59201,-2.711l-2.591,-2.71002l-2.591,-2.70999l2.67603,2.79901l2.67596,2.79901l2.677,2.79999l2.67603,2.79898l2.67599,2.79904l2.67599,2.79898l2.677,2.79999l2.67599,2.79901l7.51901,7.86499l7.51898,7.86499l7.51901,7.86401l7.51898,7.86499l7.51901,7.86502l7.51901,7.86499l7.51898,7.86401l7.51901,7.86499l-7.43402,-7.776l-7.43399,-7.776l-7.43399,-7.776l-7.43399,-7.77499l-7.43402,-7.776l-7.43399,-7.776l-7.43399,-7.776l-7.43402,-7.776l-2.677,-2.79898l-2.67599,-2.80002l-2.67599,-2.79898l-2.67599,-2.79904l-2.677,-2.79996l-2.67599,-2.79901l-2.67599,-2.79901l-2.67603,-2.79901l2.76102,2.888l2.76099,2.88803l2.76102,2.888l2.76099,2.888l2.76199,2.88797l2.76102,2.88901l2.76099,2.888l2.76102,2.888l15.03799,15.729l15.039,15.73001l15.03799,15.72897l15.03799,15.73001l-14.86798,-15.552l-14.86902,-15.552l-14.86798,-15.55099l-14.86801,-15.552l-5.522,-5.776l-5.52301,-5.77701l-5.52197,-5.776l-5.52301,-5.77698l5.69299,5.95499l5.69202,5.95401l5.69199,5.95398l5.69299,5.95401l15.03799,15.729l15.03802,15.73001l15.03799,15.729l15.03799,15.72998l-14.86801,-15.552l-14.86798,-15.552l-14.86801,-15.55099l-14.86899,-15.552l-5.69202,-5.95398l-5.69199,-5.95401l-5.69299,-5.95502l-5.69202,-5.95398l5.862,6.13199l5.862,6.13202l5.86301,6.13199l5.862,6.13199l15.03799,15.729l15.03799,15.73001l15.03799,15.729l15.03802,15.72998l-14.86801,-15.552l-14.86801,-15.552l-14.86798,-15.552l-14.86801,-15.55096l-5.86301,-6.13202l-5.862,-6.13202l-5.862,-6.13199l-5.862,-6.13199l6.03201,6.31l6.03198,6.30899l6.03201,6.31l6.03201,6.31003l15.039,15.72897l15.03799,15.73001l15.03799,15.729l15.03799,15.72998l-14.86798,-15.552l-14.86902,-15.552l-14.86798,-15.55197l-14.86801,-15.55099l-6.03201,-6.31l-6.03198,-6.31003l-6.03302,-6.30899l-6.03198,-6.31l6.202,6.48801l6.203,6.48697l6.202,6.487l6.202,6.48703l15.03799,15.72998l15.03799,15.729l15.03802,15.73001l15.03799,15.729l-14.86801,-15.55103l-14.86798,-15.55197l-14.86801,-15.552l-14.86801,-15.55203l-6.203,-6.487l-6.202,-6.487l-6.202,-6.48798l-6.202,-6.487l6.37201,6.66498l6.37198,6.66501l6.37201,6.66501l6.37201,6.66498l15.03799,15.73001l15.03799,15.729l15.03799,15.73001l15.039,15.729l-14.86899,-15.55099l-14.86801,-15.552l-14.86798,-15.552l-14.86801,-15.552l-6.37201,-6.66501l-6.37198,-6.66498l-6.37201,-6.66501l-6.37198,-6.66501l6.54199,6.84302l6.54199,6.84299l6.54199,6.84198l6.54199,6.84302l15.03799,15.72998l15.03802,15.729l15.03799,15.73001l15.03799,15.729l-14.86801,-15.552l-14.86798,-15.55099l-14.86902,-15.552l-14.86798,-15.552l-6.54199,-6.84299l-6.54202,-6.84201l-6.54199,-6.84302l-6.54199,-6.84299l6.71201,7.021l6.71198,7.02002l6.71201,7.021l6.71201,7.01999l15.03799,15.73001l15.03799,15.72897l15.03802,15.73001l15.03799,15.729l-14.86801,-15.552l-14.86798,-15.55099l-14.86801,-15.552l-14.86801,-15.552l-6.71201,-7.02002l-6.71198,-7.02097l-6.71201,-7.02002l-6.71201,-7.021l0.67999,0.711l0.67902,0.711l0.67999,0.711l0.67999,0.711l0.67902,0.711l0.67999,0.711l0.67999,0.71103l0.67999,0.71097l0.67902,0.71002l0.67999,0.711l0.67999,0.711l0.67902,0.711l0.67999,0.711l0.67999,0.711l0.67902,0.711l0.67999,0.711l0.67999,0.711l0.67902,0.711l0.67999,0.711l0.67999,0.711l0.67902,0.711l0.67999,0.71103l0.67999,0.711l0.67999,0.71097l0.67902,0.70999l0.67999,0.71103l0.67999,0.711l0.67902,0.711l0.67999,0.711l0.67999,0.711l0.67902,0.711l0.67999,0.711l0.67999,0.711l0.67902,0.711l0.67999,0.711l0.67999,0.711l0.67902,0.711l0.67999,0.711l0.67999,0.711l0.67999,0.711l1.35901,1.42102l1.35901,1.422l1.35999,1.422l1.35901,1.422l1.35901,1.422l1.35999,1.422l1.35901,1.422l1.35999,1.422l1.35901,1.42102l1.35901,1.422l1.35999,1.422l1.35901,1.422l1.35901,1.422l1.35999,1.422l1.35901,1.422l1.35999,1.422l1.35901,1.42102l1.35901,1.422l1.35999,1.422l1.35901,1.422l1.35901,1.422l1.35999,1.422l1.35901,1.422l1.35999,1.422l1.35901,1.42102l1.35901,1.422l1.35999,1.422l1.35901,1.422l1.35901,1.422l1.35999,1.422l1.35901,1.422l1.35999,1.422l1.35901,1.42102l1.35901,1.422l1.35999,1.422l1.35901,1.422l1.35901,1.422l1.35999,1.422l1.35901,1.422l1.35999,1.422l1.35901,1.42102l1.35901,1.422" stroke-width="0" stroke="#000" fill="#000000"/>
 </g>
</svg>
