<svg xmlns="http://www.w3.org/2000/svg" height="59pt" version="1.1" viewBox="-1 0 59 59.638441" width="59pt">
<g id="surface1">
<path d="M 56.625 45.878906 C 49.21875 48.535156 46.824219 46.941406 44.28125 45.261719 C 43.800781 44.941406 43.3125 44.621094 42.808594 44.320312 L 42.808594 9.882812 C 42.808594 4.421875 38.386719 0 32.925781 0 C 32.246094 0 31.695312 0.554688 31.695312 1.234375 C 31.695312 1.917969 32.246094 2.46875 32.925781 2.46875 C 37.023438 2.46875 40.339844 5.785156 40.339844 9.882812 L 40.339844 16.152344 L 18.039062 16.152344 L 18.039062 9.882812 C 18.039062 4.421875 13.609375 0 8.15625 0 C 7.476562 0 6.921875 0.554688 6.921875 1.234375 C 6.921875 1.917969 7.476562 2.46875 8.15625 2.46875 C 12.246094 2.46875 15.566406 5.785156 15.566406 9.882812 L 15.566406 44.558594 C 12.835938 42.855469 9.464844 41.730469 1.117188 45.925781 C 0.507812 46.238281 0.257812 46.980469 0.566406 47.59375 C 0.875 48.199219 1.617188 48.445312 2.230469 48.140625 C 10.394531 44.023438 12.640625 45.542969 15.246094 47.300781 C 17.238281 48.882812 19.703125 49.753906 22.246094 49.773438 C 24.828125 49.679688 27.371094 49.148438 29.769531 48.199219 L 29.902344 48.199219 C 38.066406 44.089844 40.3125 45.605469 42.921875 47.359375 C 44.910156 48.945312 47.375 49.816406 49.925781 49.828125 C 52.5 49.742188 55.042969 49.207031 57.441406 48.261719 C 58.101562 48.078125 58.480469 47.394531 58.292969 46.738281 C 58.105469 46.082031 57.421875 45.699219 56.765625 45.890625 C 56.71875 45.902344 56.664062 45.917969 56.617188 45.941406 Z M 18.039062 29.542969 L 40.378906 29.542969 L 40.378906 37.976562 L 18.039062 37.976562 Z M 40.363281 18.636719 L 40.363281 27.070312 L 18.039062 27.070312 L 18.039062 18.636719 Z M 28.878906 45.894531 C 22.851562 48.039062 20.171875 47.386719 18.023438 46.152344 L 18.023438 40.441406 L 40.378906 40.441406 L 40.378906 43.289062 C 37.945312 42.679688 34.582031 43.050781 28.890625 45.894531 Z M 28.878906 45.894531 " style=" stroke:none;fill-rule:nonzero;fill:rgb(0%,0%,0%);fill-opacity:1;" />
<path d="M 56.625 55.746094 C 49.21875 58.402344 46.824219 56.808594 44.28125 55.128906 C 41.3125 53.128906 38.242188 51.066406 28.855469 55.769531 C 21.445312 58.402344 19.101562 56.824219 16.589844 55.128906 C 13.617188 53.128906 10.539062 51.054688 1.078125 55.808594 C 0.449219 56.070312 0.152344 56.792969 0.414062 57.425781 C 0.675781 58.054688 1.398438 58.351562 2.03125 58.089844 C 2.085938 58.066406 2.136719 58.035156 2.191406 58.007812 C 10.355469 53.898438 12.601562 55.414062 15.207031 57.167969 C 17.199219 58.753906 19.664062 59.625 22.210938 59.636719 C 24.789062 59.546875 27.332031 59.015625 29.730469 58.070312 L 29.863281 58.070312 C 38.082031 53.929688 40.328125 55.414062 42.945312 57.167969 C 44.941406 58.753906 47.398438 59.625 49.949219 59.636719 C 52.527344 59.546875 55.070312 59.015625 57.472656 58.070312 C 58.125 57.882812 58.503906 57.195312 58.320312 56.542969 C 58.132812 55.886719 57.445312 55.507812 56.792969 55.691406 C 56.742188 55.707031 56.691406 55.726562 56.640625 55.746094 C 56.640625 55.746094 56.625 55.746094 56.625 55.746094 Z M 56.625 55.746094 " style=" stroke:none;fill-rule:nonzero;fill:rgb(0%,0%,0%);fill-opacity:1;" />
</g>
</svg>
