<?xml version="1.0"?>
<svg xmlns="http://www.w3.org/2000/svg" xmlns:xlink="http://www.w3.org/1999/xlink" version="1.1" id="Capa_1" x="0px" y="0px" viewBox="0 0 512 512" style="enable-background:new 0 0 512 512;" xml:space="preserve" width="512px" height="512px"><g><g>
	<g>
		<path d="M256.002,0c-74.535,0-135,60.679-135,135c0,74.263,60.408,135,135,135c74.545,0,135-60.689,135-135    C391.002,60.692,330.547,0,256.002,0z M238.227,55.414C246.007,34.669,253.863,30,256.002,30c2.139,0,9.995,4.669,17.775,25.414    c2.241,5.978,4.186,12.557,5.836,19.586h-47.222C234.041,67.971,235.986,61.392,238.227,55.414z M155.376,165    c-2.84-9.51-4.374-19.578-4.374-30c0-10.421,1.534-20.69,4.374-30.2h41.985c-0.892,9.729-1.359,19.979-1.359,30.2    s0.466,20.271,1.359,30H155.376z M169.885,195h31.809c2.423,11.945,5.789,24.061,10.566,35.443    C195.179,222.584,180.557,210.271,169.885,195z M201.694,75h-31.809c10.672-15.271,25.294-27.583,42.375-35.443    C207.483,50.938,204.117,63.056,201.694,75z M273.777,214.586C265.998,235.331,258.141,240,256.002,240    s-9.996-4.669-17.775-25.414c-2.241-5.978-4.186-12.757-5.836-19.786h47.222C277.963,201.829,276.018,208.608,273.777,214.586z     M284.515,165H227.49c-0.974-9.631-1.488-19.692-1.488-30s0.514-20.369,1.488-30h57.025c0.974,9.631,1.488,19.692,1.488,30    S285.489,155.369,284.515,165z M342.12,75h-31.81c-2.423-11.943-5.791-24.067-10.567-35.444    C316.825,47.416,331.448,59.729,342.12,75z M299.744,230.444c4.776-11.377,8.143-23.699,10.567-35.644h31.81    C331.448,210.071,316.825,222.584,299.744,230.444z M314.644,165c0.892-9.729,1.359-19.779,1.359-30s-0.467-20.271-1.359-30    h41.985c2.841,9.51,4.374,19.579,4.374,30c0,10.421-1.533,20.49-4.374,30H314.644z" data-original="#000000" class="active-path" data-old_color="#CC4040" fill="#148ECF"/>
	</g>
</g><g>
	<g>
		<path d="M218.033,347.821l-81.213-81.214c-12.809-12.809-31.178-16.146-46.82-10.632V166c0-24.813-20.187-45-45-45    S0,141.187,0,166v134.669c0.023,44.506,19.934,86.062,54.628,114.012l35.374,28.497L90,497c0,3.978,1.58,7.794,4.393,10.607    S101.021,512,105,512h120c8.284,0,15-6.716,15-15v-96.146C240,380.821,232.199,361.986,218.033,347.821z M210,482h-90l0.002-46    c0-4.539-2.055-8.834-5.59-11.682l-40.964-33C45.855,369.089,30.018,336.042,30,300.584V166c0-8.271,6.729-15,15-15    s15,6.729,15,15v132.455c0,0.336,0.011,0.669,0.033,1c0.253,11.178,4.636,22.28,13.147,30.792l56.361,56.361    c5.857,5.858,15.355,5.858,21.213,0c5.858-5.857,5.858-15.356,0-21.213l-56.361-56.361c-5.849-5.85-5.848-15.365,0-21.213    c5.864-5.863,15.35-5.863,21.214,0l81.213,81.213c8.5,8.5,13.18,19.8,13.18,31.82V482z" data-original="#000000" class="active-path" data-old_color="#CC4040" fill="#148ECF"/>
	</g>
</g><g>
	<g>
		<path d="M467,121c-24.813,0-45,20.187-45,45v89.975c-15.445-5.444-33.871-2.317-46.819,10.632    c-3.742,3.742-75.431,75.431-81.214,81.213c-14.166,14.166-21.967,33-21.967,53.033V497c0,8.284,6.716,15,15,15h120    c3.979,0,7.794-1.581,10.606-4.394C420.42,504.794,422,500.978,422,497l-0.002-53.822l35.796-28.837    c33.474-26.967,53.217-67.102,54.167-110.127c0.025-1.209,0.039-2.418,0.039-3.629V166C512,141.187,491.814,121,467,121z     M482.001,300.584H482c0,0.998-0.012,1.995-0.032,2.979c-0.754,34.149-16.425,66.01-42.994,87.415l-41.386,33.341    c-3.535,2.848-5.59,7.143-5.59,11.682L392,482h-90v-81.146c0-12.02,4.681-23.321,13.18-31.82l81.214-81.213    c5.863-5.863,15.35-5.863,21.213,0c5.863,5.864,5.863,15.35,0,21.213l-56.36,56.361c-5.858,5.858-5.858,15.355,0,21.213    c5.857,5.858,15.355,5.858,21.213,0l56.36-56.36c8.464-8.463,13.141-19.704,13.18-31.667c0.001-0.042,0.001-0.083,0.001-0.124V166    c0-8.271,6.729-15,15-15s15,6.729,15,15V300.584z" data-original="#000000" class="active-path" data-old_color="#CC4040" fill="#148ECF"/>
	</g>
</g></g> </svg>
